<svg width="96" height="39" viewBox="0 0 96 39" fill="none" xmlns="http://www.w3.org/2000/svg">
<path d="M10.2991 5.08345C10.2337 4.4246 9.95329 3.91276 9.45779 3.54794C8.96228 3.18312 8.28982 3.00071 7.44039 3.00071C6.86321 3.00071 6.37587 3.08239 5.97838 3.24574C5.58089 3.40365 5.27597 3.62417 5.06361 3.90731C4.8567 4.19046 4.75324 4.51172 4.75324 4.87109C4.74235 5.17057 4.80497 5.43194 4.9411 5.65518C5.08267 5.87843 5.27597 6.07173 5.521 6.23509C5.76602 6.39299 6.04917 6.53184 6.37043 6.65163C6.69169 6.76598 7.03473 6.86399 7.39955 6.94567L8.90239 7.30504C9.63203 7.46839 10.3018 7.6862 10.9116 7.95845C11.5215 8.23071 12.0496 8.56558 12.4961 8.96307C12.9426 9.36056 13.2884 9.82884 13.5334 10.3679C13.7839 10.907 13.9119 11.525 13.9173 12.2219C13.9119 13.2456 13.6505 14.1332 13.1332 14.8846C12.6214 15.6306 11.8808 16.2105 10.9116 16.6243C9.94784 17.0327 8.78532 17.2369 7.42405 17.2369C6.07367 17.2369 4.89753 17.0299 3.89564 16.6161C2.89919 16.2023 2.12055 15.5897 1.5597 14.7784C1.00431 13.9616 0.712994 12.9516 0.685769 11.7482H4.108C4.14611 12.3091 4.30674 12.7773 4.58989 13.1531C4.87848 13.5233 5.26236 13.8037 5.74152 13.9943C6.22613 14.1795 6.77336 14.272 7.38321 14.272C7.98217 14.272 8.50218 14.1849 8.94323 14.0107C9.38972 13.8364 9.73548 13.5941 9.98051 13.2837C10.2255 12.9734 10.3481 12.6167 10.3481 12.2138C10.3481 11.8381 10.2364 11.5223 10.0132 11.2663C9.79538 11.0104 9.47412 10.7926 9.04941 10.6129C8.63013 10.4332 8.11557 10.2699 7.50573 10.1229L5.68435 9.66548C4.27407 9.32244 3.16056 8.7861 2.34379 8.05646C1.52703 7.32682 1.12137 6.34399 1.12682 5.10795C1.12137 4.09517 1.39091 3.21035 1.93541 2.45348C2.48537 1.69661 3.23951 1.10582 4.19784 0.681108C5.15618 0.256392 6.24519 0.0440335 7.46489 0.0440335C8.70637 0.0440335 9.78994 0.256392 10.7156 0.681108C11.6467 1.10582 12.3709 1.69661 12.8882 2.45348C13.4055 3.21035 13.6723 4.087 13.6886 5.08345H10.2991ZM19.8082 17.2369C19.0078 17.2369 18.2945 17.098 17.6683 16.8203C17.0421 16.5372 16.5466 16.1206 16.1818 15.5707C15.8224 15.0153 15.6427 14.3237 15.6427 13.4961C15.6427 12.7991 15.7707 12.2138 16.0266 11.7401C16.2825 11.2663 16.631 10.8852 17.072 10.5966C17.5131 10.308 18.014 10.0902 18.5749 9.94318C19.1412 9.79616 19.7347 9.69271 20.3554 9.63281C21.0851 9.55658 21.6731 9.4858 22.1196 9.42045C22.5661 9.34967 22.8901 9.24621 23.0916 9.11009C23.293 8.97396 23.3938 8.77249 23.3938 8.50568V8.45668C23.3938 7.93939 23.2304 7.53918 22.9037 7.25604C22.5825 6.97289 22.1251 6.83132 21.5316 6.83132C20.9054 6.83132 20.4072 6.97017 20.0369 7.24787C19.6666 7.52012 19.4216 7.86316 19.3018 8.27699L16.0838 8.01562C16.2471 7.25331 16.5684 6.59446 17.0475 6.03906C17.5267 5.47822 18.1447 5.04806 18.9016 4.74858C19.6639 4.44366 20.546 4.29119 21.5479 4.29119C22.2449 4.29119 22.9119 4.37287 23.549 4.53622C24.1915 4.69957 24.7605 4.95277 25.256 5.29581C25.7569 5.63885 26.1517 6.0799 26.4403 6.61896C26.7289 7.15258 26.8732 7.79238 26.8732 8.53835V17H23.5735V15.2603H23.4755C23.274 15.6523 23.0045 15.9981 22.6669 16.2976C22.3293 16.5916 21.9236 16.823 21.4499 16.9918C20.9762 17.1552 20.4289 17.2369 19.8082 17.2369ZM20.8046 14.8356C21.3165 14.8356 21.7684 14.7348 22.1605 14.5334C22.5525 14.3265 22.8602 14.0488 23.0834 13.7003C23.3067 13.3518 23.4183 12.957 23.4183 12.516V11.1847C23.3094 11.2554 23.1596 11.3208 22.9691 11.3807C22.7839 11.4351 22.5743 11.4869 22.3402 11.5359C22.106 11.5794 21.8719 11.6203 21.6377 11.6584C21.4036 11.6911 21.1912 11.721 21.0007 11.7482C20.5923 11.8081 20.2356 11.9034 19.9307 12.0341C19.6258 12.1648 19.3889 12.3417 19.2201 12.565C19.0513 12.7828 18.9669 13.055 18.9669 13.3817C18.9669 13.8555 19.1385 14.2176 19.4815 14.468C19.83 14.7131 20.271 14.8356 20.8046 14.8356ZM33.052 9.74716V17H29.5726V4.45455H32.8886V6.66797H33.0356C33.3133 5.93833 33.7789 5.36115 34.4323 4.93643C35.0857 4.50627 35.878 4.29119 36.8091 4.29119C37.6803 4.29119 38.4399 4.48177 39.0878 4.86293C39.7358 5.24408 40.2395 5.78859 40.5989 6.49645C40.9582 7.19886 41.1379 8.0374 41.1379 9.01207V17H37.6585V9.63281C37.664 8.86506 37.4679 8.2661 37.0704 7.83594C36.673 7.40033 36.1257 7.18253 35.4288 7.18253C34.9605 7.18253 34.5467 7.28326 34.1873 7.48473C33.8333 7.6862 33.5556 7.98023 33.3542 8.36683C33.1582 8.74799 33.0574 9.2081 33.052 9.74716ZM49.5485 17.245C48.2635 17.245 47.1581 16.9728 46.2325 16.4283C45.3122 15.8783 44.6044 15.116 44.1089 14.1413C43.6188 13.1667 43.3738 12.045 43.3738 10.7763C43.3738 9.49124 43.6216 8.36411 44.1171 7.39489C44.618 6.42022 45.3286 5.66063 46.2488 5.11612C47.169 4.56617 48.2635 4.29119 49.5322 4.29119C50.6266 4.29119 51.585 4.48994 52.4072 4.88743C53.2294 5.28492 53.8801 5.84304 54.3592 6.56179C54.8384 7.28054 55.1025 8.12453 55.1515 9.09375H51.8681C51.7756 8.46757 51.5305 7.9639 51.133 7.58274C50.741 7.19614 50.2264 7.00284 49.5894 7.00284C49.0503 7.00284 48.5793 7.14986 48.1764 7.44389C47.7789 7.73248 47.4685 8.15447 47.2453 8.70987C47.022 9.26527 46.9104 9.93774 46.9104 10.7273C46.9104 11.5277 47.0193 12.2083 47.2371 12.7692C47.4603 13.33 47.7734 13.7575 48.1764 14.0515C48.5793 14.3455 49.0503 14.4925 49.5894 14.4925C49.9868 14.4925 50.3435 14.4109 50.6593 14.2475C50.9806 14.0842 51.2447 13.8473 51.4516 13.5369C51.6639 13.2211 51.8028 12.8427 51.8681 12.4016H55.1515C55.097 13.36 54.8357 14.204 54.3674 14.9336C53.9046 15.6578 53.2648 16.2241 52.448 16.6325C51.6313 17.0408 50.6648 17.245 49.5485 17.245ZM60.8586 9.74716V17H57.3792V0.272727H60.7606V6.66797H60.9076C61.1908 5.92744 61.6482 5.34754 62.2798 4.92827C62.9114 4.50355 63.7037 4.29119 64.6566 4.29119C65.5278 4.29119 66.2874 4.48177 66.9353 4.86293C67.5887 5.23864 68.0951 5.78042 68.4545 6.48828C68.8193 7.1907 68.999 8.03196 68.9936 9.01207V17H65.5142V9.63281C65.5196 8.85961 65.3236 8.25793 64.9261 7.82777C64.534 7.39761 63.9841 7.18253 63.2762 7.18253C62.8025 7.18253 62.3832 7.28326 62.0184 7.48473C61.659 7.6862 61.3759 7.98023 61.169 8.36683C60.9675 8.74799 60.8641 9.2081 60.8586 9.74716ZM77.4491 17.245C76.1586 17.245 75.0478 16.9837 74.1167 16.4609C73.191 15.9328 72.4777 15.1868 71.9768 14.223C71.4758 13.2538 71.2254 12.1076 71.2254 10.7844C71.2254 9.49396 71.4758 8.36139 71.9768 7.38672C72.4777 6.41205 73.1829 5.65246 74.0922 5.10795C75.007 4.56345 76.0796 4.29119 77.3102 4.29119C78.1379 4.29119 78.9084 4.4246 79.6217 4.69141C80.3404 4.95277 80.9666 5.34754 81.5002 5.87571C82.0393 6.40388 82.4586 7.06818 82.758 7.86861C83.0575 8.66359 83.2073 9.5947 83.2073 10.6619V11.6175H72.6139V9.46129H79.932C79.932 8.96035 79.8231 8.51657 79.6053 8.12997C79.3875 7.74337 79.0853 7.44117 78.6987 7.22337C78.3176 7.00012 77.8738 6.88849 77.3674 6.88849C76.8392 6.88849 76.371 7.01101 75.9626 7.25604C75.5596 7.49562 75.2438 7.8196 75.0151 8.22798C74.7864 8.63092 74.6694 9.08014 74.6639 9.57564V11.6257C74.6639 12.2464 74.7783 12.7828 75.007 13.2347C75.2411 13.6867 75.5705 14.0352 75.9953 14.2802C76.42 14.5252 76.9236 14.6477 77.5063 14.6477C77.8929 14.6477 78.2468 14.5933 78.568 14.4844C78.8893 14.3755 79.1643 14.2121 79.393 13.9943C79.6217 13.7765 79.7959 13.5097 79.9157 13.1939L83.1337 13.4062C82.9704 14.1795 82.6355 14.8546 82.1291 15.4318C81.6282 16.0036 80.9802 16.45 80.1852 16.7713C79.3957 17.0871 78.4837 17.245 77.4491 17.245ZM85.4125 17V14.9254L91.5546 7.32138V7.23153H85.6249V4.45455H95.7445V6.71697L89.9782 14.1332V14.223H95.9569V17H85.4125ZM10.5696 21.2727L14.6126 33.9815H14.7678L18.8189 21.2727H22.7393L16.973 38H12.4155L6.64098 21.2727H10.5696ZM28.9896 38.245C27.6991 38.245 26.5883 37.9837 25.6572 37.4609C24.7316 36.9328 24.0183 36.1868 23.5173 35.223C23.0164 34.2538 22.7659 33.1076 22.7659 31.7844C22.7659 30.494 23.0164 29.3614 23.5173 28.3867C24.0183 27.4121 24.7234 26.6525 25.6327 26.108C26.5475 25.5634 27.6202 25.2912 28.8508 25.2912C29.6784 25.2912 30.4489 25.4246 31.1622 25.6914C31.8809 25.9528 32.5071 26.3475 33.0407 26.8757C33.5798 27.4039 33.9991 28.0682 34.2986 28.8686C34.598 29.6636 34.7478 30.5947 34.7478 31.6619V32.6175H24.1544V30.4613H31.4726C31.4726 29.9603 31.3637 29.5166 31.1459 29.13C30.9281 28.7434 30.6259 28.4412 30.2393 28.2234C29.8581 28.0001 29.4143 27.8885 28.9079 27.8885C28.3798 27.8885 27.9115 28.011 27.5031 28.256C27.1002 28.4956 26.7844 28.8196 26.5557 29.228C26.327 29.6309 26.2099 30.0801 26.2045 30.5756V32.6257C26.2045 33.2464 26.3188 33.7828 26.5475 34.2347C26.7816 34.6867 27.1111 35.0352 27.5358 35.2802C27.9605 35.5252 28.4642 35.6477 29.0468 35.6477C29.4334 35.6477 29.7873 35.5933 30.1086 35.4844C30.4298 35.3755 30.7048 35.2121 30.9335 34.9943C31.1622 34.7765 31.3364 34.5097 31.4562 34.1939L34.6743 34.4062C34.5109 35.1795 34.176 35.8546 33.6697 36.4318C33.1687 37.0036 32.5207 37.45 31.7258 37.7713C30.9362 38.0871 30.0242 38.245 28.9896 38.245ZM40.4978 30.7472V38H37.0184V25.4545H40.3344V27.668H40.4814C40.7591 26.9383 41.2247 26.3611 41.8781 25.9364C42.5315 25.5063 43.3238 25.2912 44.2549 25.2912C45.1261 25.2912 45.8857 25.4818 46.5336 25.8629C47.1816 26.2441 47.6853 26.7886 48.0447 27.4964C48.404 28.1989 48.5837 29.0374 48.5837 30.0121V38H45.1043V30.6328C45.1098 29.8651 44.9137 29.2661 44.5162 28.8359C44.1188 28.4003 43.5715 28.1825 42.8746 28.1825C42.4063 28.1825 41.9925 28.2833 41.6331 28.4847C41.2791 28.6862 41.0015 28.9802 40.8 29.3668C40.604 29.748 40.5032 30.2081 40.4978 30.7472ZM59.3711 32.6584V25.4545H62.8505V38H59.5099V35.7212H59.3793C59.0961 36.4563 58.6251 37.0471 57.9663 37.4936C57.3129 37.9401 56.5152 38.1634 55.5732 38.1634C54.7346 38.1634 53.9968 37.9728 53.3597 37.5916C52.7227 37.2105 52.2244 36.6687 51.8651 35.9663C51.5111 35.2638 51.3314 34.4226 51.326 33.4425V25.4545H54.8054V32.8217C54.8108 33.5623 55.0096 34.1476 55.4016 34.5778C55.7937 35.0079 56.3191 35.223 56.978 35.223C57.3973 35.223 57.7893 35.1277 58.1541 34.9371C58.5189 34.7411 58.813 34.4525 59.0362 34.0714C59.2649 33.6902 59.3765 33.2192 59.3711 32.6584ZM71.3509 38.245C70.0605 38.245 68.9497 37.9837 68.0186 37.4609C67.0929 36.9328 66.3796 36.1868 65.8786 35.223C65.3777 34.2538 65.1272 33.1076 65.1272 31.7844C65.1272 30.494 65.3777 29.3614 65.8786 28.3867C66.3796 27.4121 67.0847 26.6525 67.9941 26.108C68.9088 25.5634 69.9815 25.2912 71.2121 25.2912C72.0397 25.2912 72.8102 25.4246 73.5235 25.6914C74.2423 25.9528 74.8685 26.3475 75.4021 26.8757C75.9411 27.4039 76.3604 28.0682 76.6599 28.8686C76.9594 29.6636 77.1091 30.5947 77.1091 31.6619V32.6175H66.5157V30.4613H73.8339C73.8339 29.9603 73.725 29.5166 73.5072 29.13C73.2894 28.7434 72.9872 28.4412 72.6006 28.2234C72.2194 28.0001 71.7757 27.8885 71.2693 27.8885C70.7411 27.8885 70.2728 28.011 69.8644 28.256C69.4615 28.4956 69.1457 28.8196 68.917 29.228C68.6883 29.6309 68.5712 30.0801 68.5658 30.5756V32.6257C68.5658 33.2464 68.6801 33.7828 68.9088 34.2347C69.143 34.6867 69.4724 35.0352 69.8971 35.2802C70.3218 35.5252 70.8255 35.6477 71.4081 35.6477C71.7947 35.6477 72.1486 35.5933 72.4699 35.4844C72.7912 35.3755 73.0661 35.2121 73.2948 34.9943C73.5235 34.7765 73.6978 34.5097 73.8176 34.1939L77.0356 34.4062C76.8722 35.1795 76.5374 35.8546 76.031 36.4318C75.53 37.0036 74.8821 37.45 74.0871 37.7713C73.2976 38.0871 72.3855 38.245 71.3509 38.245ZM89.8179 29.032L86.6325 29.228C86.5781 28.9557 86.461 28.7107 86.2813 28.4929C86.1017 28.2696 85.8648 28.0927 85.5708 27.962C85.2822 27.8259 84.9364 27.7578 84.5335 27.7578C83.9944 27.7578 83.5397 27.8722 83.1695 28.1009C82.7992 28.3241 82.6141 28.6236 82.6141 28.9993C82.6141 29.2988 82.7339 29.552 82.9735 29.7589C83.213 29.9658 83.6241 30.1319 84.2068 30.2571L86.4774 30.7145C87.6971 30.965 88.6064 31.3679 89.2053 31.9233C89.8043 32.4787 90.1038 33.2083 90.1038 34.1122C90.1038 34.9344 89.8615 35.6559 89.3769 36.2766C88.8977 36.8974 88.2388 37.382 87.4003 37.7305C86.5672 38.0735 85.6061 38.245 84.5171 38.245C82.8564 38.245 81.5332 37.8993 80.5477 37.2077C79.5676 36.5108 78.9931 35.5633 78.8243 34.3654L82.2465 34.1857C82.35 34.6921 82.6005 35.0787 82.998 35.3455C83.3954 35.6069 83.9046 35.7376 84.5253 35.7376C85.1352 35.7376 85.6252 35.6205 85.9955 35.3864C86.3712 35.1468 86.5618 34.8391 86.5672 34.4634C86.5618 34.1476 86.4284 33.889 86.167 33.6875C85.9056 33.4806 85.5027 33.3227 84.9582 33.2138L82.7856 32.7809C81.5605 32.5359 80.6484 32.1112 80.0494 31.5067C79.4559 30.9023 79.1592 30.1319 79.1592 29.1953C79.1592 28.3894 79.377 27.6952 79.8126 27.1126C80.2536 26.5299 80.8717 26.0807 81.6666 25.7649C82.4671 25.4491 83.4036 25.2912 84.4763 25.2912C86.0608 25.2912 87.3077 25.6261 88.2171 26.2958C89.1318 26.9656 89.6655 27.8776 89.8179 29.032Z" fill="black"/>
</svg>
